# xmcd
#
# Track frame offsets:
# 183
# 16108
# 30508
# 42283
# 56683
# 67183
# 78658
# 92383
# 106558
# 117358
#
# Disc length: 1889 seconds
#
#
# Revision: 0
# Processed by: cddbd v1.4PL0 Copyright (c) Steve Scherf et al.
# Submitted via: FreeRIP 2.00 
#
DISCID=73075f0a
DTITLE=Fabrizio De Andre - Fabrizio De Andre Vol 1
DYEAR=1970
DGENRE=
TTITLE0=Preghiera in gennaio
TTITLE1=Marcia nuziale
TTITLE2=Spiritual
TTITLE3=Si chiamava Gesù
TTITLE4=La canzone di Barbara
TTITLE5=Via del campo
TTITLE6=La stagione del tuo amore
TTITLE7=Bocca di Rosa
TTITLE8=La morte
TTITLE9=Carlo Martello ritorna dalla battaglia di Poitiers
EXTD=
EXTT0=De Andrè
EXTT1=De Andrè - Brassens
EXTT2=De Andrè
EXTT3=De Andrè
EXTT4=De Andrè
EXTT5=De Andrè
EXTT6=De Andrè
EXTT7=De Andrè
EXTT8=De Andrè - Brassens
EXTT9=De Andrè
PLAYORDER=
